<svg width="19" height="19" viewBox="0 0 19 19" fill="none" xmlns="http://www.w3.org/2000/svg">
<path d="M18.394 7.26664C17.9819 6.903 17.4728 6.68482 16.891 6.68482H13.4001C13.1334 6.68482 12.891 6.46664 12.891 6.17573V2.68482C12.891 2.10301 12.6486 1.59391 12.2849 1.20604C11.8971 0.818157 11.388 0.599976 10.8062 0.599976H8.74555C8.16373 0.599976 7.65464 0.8424 7.26676 1.20604C6.87888 1.59391 6.6607 2.10301 6.6607 2.68482V6.17573C6.6607 6.4424 6.44252 6.68482 6.15161 6.68482H2.68495C2.10313 6.68482 1.59404 6.92725 1.20616 7.29088C0.818279 7.67876 0.600098 8.18785 0.600098 8.76967V10.8303C0.600098 11.4121 0.842522 11.9212 1.20616 12.3091C1.59404 12.6969 2.10313 12.9151 2.68495 12.9151H6.17585C6.44252 12.9151 6.68494 13.1333 6.68494 13.4242V16.9151C6.68494 17.4969 6.92737 18.006 7.291 18.3939C7.67888 18.7818 8.18797 19 8.76979 19H10.8304C11.4122 19 11.9213 18.7575 12.3092 18.3939C12.6971 18.006 12.9152 17.4969 12.9152 16.9151V13.4C12.9152 13.1333 13.1334 12.8909 13.4243 12.8909H16.9152C17.4971 12.8909 18.0062 12.6485 18.394 12.2848C18.7819 11.8969 19.0001 11.3879 19.0001 10.806V8.74543C19.0001 8.16361 18.7577 7.65452 18.394 7.26664Z" fill="#573353"/>
</svg>
